<svg width="25" height="24" viewBox="0 0 25 24" fill="none" xmlns="http://www.w3.org/2000/svg">
<path d="M17.0384 6.39221L12.5481 9.89653L7.95508 6.39221V6.39316L7.96063 6.39789V11.3049L12.4963 14.885L17.0384 11.4432V6.39221Z" fill="#F44336"/>
<path d="M18.2176 5.53979L17.0383 6.39219V11.4431L20.749 8.59423V6.87806C20.749 6.87806 20.2986 4.42693 18.2176 5.53979Z" fill="#FDD835"/>
<path d="M17.0383 11.4432V17.9944H19.8824C19.8824 17.9944 20.6916 17.9111 20.7499 16.9886V8.59433L17.0383 11.4432Z" fill="#43A048"/>
<path d="M7.96084 18V11.3048L7.95508 11.3001L7.96084 18Z" fill="#F44336"/>
<path d="M7.9551 6.39322L6.78234 5.54555C4.70135 4.43269 4.25 6.88287 4.25 6.88287V8.59904L7.9551 11.3002V6.39322Z" fill="#B71B1C"/>
<path d="M7.95508 6.39313V11.3001L7.96084 11.3049V6.39786L7.95508 6.39313Z" fill="#F44336"/>
<path d="M4.25 8.59991V16.9942C4.30734 17.9176 5.11754 18 5.11754 18H7.96158L7.9551 11.3001L4.25 8.59991Z" fill="#304FFE"/>
</svg>
