<svg width="28" height="24" viewBox="0 0 28 24" fill="none" xmlns="http://www.w3.org/2000/svg">
<path fill-rule="evenodd" clip-rule="evenodd" d="M0 3V21C0 22.6569 1.34315 24 3 24H25C26.6569 24 28 22.6569 28 21V7C28 5.34315 26.6569 4 25 4H5.25C4.69772 4 4.25 3.55228 4.25 3C4.25 2.44772 4.69772 2 5.25 2H23.8293C23.4175 0.834808 22.3062 0 21 0H3C1.34315 0 0 1.34315 0 3ZM20 13.5C20 12.3954 20.8954 11.5 22 11.5C23.1046 11.5 24 12.3954 24 13.5C24 14.6046 23.1046 15.5 22 15.5C20.8954 15.5 20 14.6046 20 13.5Z" fill="white"/>
</svg>
