<svg width="28" height="24" viewBox="0 0 28 24" fill="none" xmlns="http://www.w3.org/2000/svg">
<path fill-rule="evenodd" clip-rule="evenodd" d="M0 6V18C0 21.3137 2.68629 24 6 24H22C25.3137 24 28 21.3137 28 18V8C28 6.80531 27.4762 5.73295 26.6458 5H5.25C4.14543 5 3.25 4.10457 3.25 3C3.25 1.89543 4.14543 1 5.25 1H22.6458C21.9407 0.377637 21.0144 0 20 0H6C2.68629 0 0 2.68629 0 6ZM20 13.5C20 12.3954 20.8954 11.5 22 11.5C23.1046 11.5 24 12.3954 24 13.5C24 14.6046 23.1046 15.5 22 15.5C20.8954 15.5 20 14.6046 20 13.5Z" fill="#C2CCDE"/>
</svg>
